<mxfile host="app.diagrams.net" modified="2021-04-02T01:28:59.757Z" agent="5.0 (Windows NT 6.1; Win64; x64) AppleWebKit/537.36 (KHTML, like Gecko) Chrome/87.0.4280.88 Safari/537.36" etag="E5yWczZIstY-OUX4LvVq" version="14.5.4" type="github">
  <diagram id="qR3vfBcr_UZPv56-9Voo" name="Page-1">
    <mxGraphModel dx="868" dy="450" grid="1" gridSize="10" guides="1" tooltips="1" connect="1" arrows="1" fold="1" page="1" pageScale="1" pageWidth="827" pageHeight="1169" math="0" shadow="0">
      <root>
        <mxCell id="0" />
        <mxCell id="1" parent="0" />
        <mxCell id="p8fG_gaxwfQypIJl60Vr-6" style="edgeStyle=orthogonalEdgeStyle;rounded=0;orthogonalLoop=1;jettySize=auto;html=1;exitX=0.5;exitY=1;exitDx=0;exitDy=0;" edge="1" parent="1" source="p8fG_gaxwfQypIJl60Vr-1">
          <mxGeometry relative="1" as="geometry">
            <mxPoint x="420" y="200" as="targetPoint" />
          </mxGeometry>
        </mxCell>
        <mxCell id="p8fG_gaxwfQypIJl60Vr-1" value="&lt;font style=&quot;font-size: 18px&quot;&gt;挥发性有机物&lt;br&gt;的标准溶液&lt;/font&gt;" style="rounded=1;whiteSpace=wrap;html=1;fillColor=#dae8fc;strokeColor=#6c8ebf;" vertex="1" parent="1">
          <mxGeometry x="480" y="90" width="120" height="60" as="geometry" />
        </mxCell>
        <mxCell id="p8fG_gaxwfQypIJl60Vr-5" style="edgeStyle=orthogonalEdgeStyle;rounded=0;orthogonalLoop=1;jettySize=auto;html=1;exitX=0.5;exitY=1;exitDx=0;exitDy=0;entryX=0.5;entryY=0;entryDx=0;entryDy=0;" edge="1" parent="1" source="p8fG_gaxwfQypIJl60Vr-2" target="p8fG_gaxwfQypIJl60Vr-3">
          <mxGeometry relative="1" as="geometry" />
        </mxCell>
        <mxCell id="p8fG_gaxwfQypIJl60Vr-2" value="&lt;span style=&quot;font-size: 18px&quot;&gt;污水样本&lt;/span&gt;" style="rounded=1;whiteSpace=wrap;html=1;fillColor=#dae8fc;strokeColor=#6c8ebf;" vertex="1" parent="1">
          <mxGeometry x="240" y="90" width="120" height="60" as="geometry" />
        </mxCell>
        <mxCell id="p8fG_gaxwfQypIJl60Vr-7" style="edgeStyle=orthogonalEdgeStyle;rounded=0;orthogonalLoop=1;jettySize=auto;html=1;exitX=0.5;exitY=1;exitDx=0;exitDy=0;entryX=0.5;entryY=0;entryDx=0;entryDy=0;" edge="1" parent="1" source="p8fG_gaxwfQypIJl60Vr-3" target="p8fG_gaxwfQypIJl60Vr-4">
          <mxGeometry relative="1" as="geometry" />
        </mxCell>
        <mxCell id="p8fG_gaxwfQypIJl60Vr-3" value="&lt;font style=&quot;font-size: 18px&quot;&gt;吹扫捕集&lt;/font&gt;" style="shape=process;whiteSpace=wrap;html=1;backgroundOutline=1;fillColor=#dae8fc;strokeColor=#6c8ebf;" vertex="1" parent="1">
          <mxGeometry x="360" y="200" width="120" height="60" as="geometry" />
        </mxCell>
        <mxCell id="p8fG_gaxwfQypIJl60Vr-9" style="edgeStyle=orthogonalEdgeStyle;rounded=0;orthogonalLoop=1;jettySize=auto;html=1;exitX=0.5;exitY=1;exitDx=0;exitDy=0;entryX=0.5;entryY=0;entryDx=0;entryDy=0;" edge="1" parent="1" source="p8fG_gaxwfQypIJl60Vr-4" target="p8fG_gaxwfQypIJl60Vr-8">
          <mxGeometry relative="1" as="geometry" />
        </mxCell>
        <mxCell id="p8fG_gaxwfQypIJl60Vr-4" value="&lt;font style=&quot;font-size: 18px&quot;&gt;色谱质谱&lt;br&gt;分析&lt;br&gt;&lt;/font&gt;" style="shape=process;whiteSpace=wrap;html=1;backgroundOutline=1;fillColor=#dae8fc;strokeColor=#6c8ebf;" vertex="1" parent="1">
          <mxGeometry x="360" y="310" width="120" height="60" as="geometry" />
        </mxCell>
        <mxCell id="p8fG_gaxwfQypIJl60Vr-11" style="edgeStyle=orthogonalEdgeStyle;rounded=0;orthogonalLoop=1;jettySize=auto;html=1;exitX=0.5;exitY=1;exitDx=0;exitDy=0;" edge="1" parent="1" source="p8fG_gaxwfQypIJl60Vr-8" target="p8fG_gaxwfQypIJl60Vr-10">
          <mxGeometry relative="1" as="geometry" />
        </mxCell>
        <mxCell id="p8fG_gaxwfQypIJl60Vr-8" value="&lt;font style=&quot;font-size: 18px&quot;&gt;比对溯源&lt;/font&gt;" style="shape=process;whiteSpace=wrap;html=1;backgroundOutline=1;fillColor=#dae8fc;strokeColor=#6c8ebf;" vertex="1" parent="1">
          <mxGeometry x="360" y="420" width="120" height="60" as="geometry" />
        </mxCell>
        <mxCell id="p8fG_gaxwfQypIJl60Vr-10" value="&lt;span style=&quot;font-size: 18px&quot;&gt;报告&lt;/span&gt;" style="rounded=1;whiteSpace=wrap;html=1;fillColor=#dae8fc;strokeColor=#6c8ebf;" vertex="1" parent="1">
          <mxGeometry x="360" y="530" width="120" height="60" as="geometry" />
        </mxCell>
      </root>
    </mxGraphModel>
  </diagram>
</mxfile>
